<svg width="242" height="279" viewBox="0 0 242 279" fill="none" xmlns="http://www.w3.org/2000/svg">
<path d="M108.88 11.5642V76.3742C108.88 82.7542 114.05 87.9342 120.44 87.9342H124.12C130.5 87.9342 135.68 82.7642 135.68 76.3742V50.9442C135.68 43.0442 143.43 37.4742 150.92 39.9942L153.85 40.9742C158.56 42.5542 161.73 46.9642 161.73 51.9242V154.124C161.73 159.414 158.14 164.024 153.02 165.324L150.09 166.064C142.78 167.924 135.69 162.404 135.69 154.864V127.934C135.69 121.554 130.52 116.374 124.13 116.374H120.45C114.07 116.374 108.89 121.544 108.89 127.934V190.744C108.89 198.634 116.62 204.204 124.1 201.704L233.21 165.314C237.93 163.744 241.11 159.324 241.11 154.354V47.9542C241.11 42.9842 237.93 38.5642 233.21 36.9942L124.1 0.604218C116.61 -1.89578 108.88 3.67421 108.88 11.5642Z" fill="url(#paint0_linear)"/>
<path d="M82.84 32.1142V170.544C82.84 179.214 73.65 184.794 65.95 180.794L6.23 149.744C2.4 147.754 0 143.804 0 139.494V62.8542C0 58.5242 2.42 54.5642 6.27 52.5842L65.99 21.8342C73.68 17.8742 82.84 23.4642 82.84 32.1142Z" fill="url(#paint1_linear)"/>
<path d="M25.03 230.474H15.84V254.184H10.36V230.474H1.13V225.554H25.03V230.474Z" fill="url(#paint2_linear)"/>
<path d="M45.99 243.234C45.99 237.064 41.4 232.764 35.2 232.764C29.03 232.764 24.41 237.504 24.41 243.744C24.41 249.984 29.15 254.724 35.85 254.724C39.88 254.724 43.53 252.904 45.35 250.154L41.29 247.584C40.23 249.184 38.14 250.184 35.85 250.184C32.62 250.184 30.22 248.554 29.56 245.564H45.9C45.94 244.684 45.99 243.904 45.99 243.234ZM29.57 241.844C30.2 238.904 32.44 237.184 35.23 237.184C38.46 237.184 40.62 239.054 40.91 241.844H29.57Z" fill="url(#paint3_linear)"/>
<path d="M54.25 243.744C54.25 245.564 54.8 247.044 55.92 248.244C57.04 249.454 58.47 250.034 60.27 250.034C62.44 250.034 64.23 249.104 65.27 247.434L69.57 249.914C67.67 252.854 64.25 254.724 60.26 254.724C54.02 254.794 49.04 249.914 49.16 243.744C49.04 237.574 54.01 232.694 60.26 232.764C64.25 232.764 67.67 234.584 69.57 237.574L65.27 240.024C64.18 238.424 62.4 237.424 60.27 237.424C56.7 237.424 54.25 240.174 54.25 243.744Z" fill="url(#paint4_linear)"/>
<path d="M93.98 242.384V254.184H88.66V242.774C88.66 239.204 87.03 237.384 83.97 237.384C80.91 237.384 78.65 239.764 78.65 243.284V254.184H73.38V225.044H78.65V236.294C79.85 234.174 82.25 232.764 85.21 232.764C90.63 232.764 93.98 236.294 93.98 242.384Z" fill="url(#paint5_linear)"/>
<path d="M127.31 225.554H132.73V241.344C132.73 250.064 128.28 254.724 120.56 254.724C112.84 254.724 108.39 250.064 108.39 241.344V225.554H113.86V241.344C113.86 246.974 116.07 249.604 120.57 249.604C125.07 249.604 127.32 246.974 127.32 241.344V225.554H127.31Z" fill="url(#paint6_linear)"/>
<path d="M169.71 230.474H160.51V254.184H155.05V230.474H145.81V225.554H169.71V230.474Z" fill="url(#paint7_linear)"/>
<path d="M190.67 243.234C190.67 237.064 186.08 232.764 179.88 232.764C173.71 232.764 169.09 237.504 169.09 243.744C169.09 249.984 173.81 254.724 180.53 254.724C184.56 254.724 188.21 252.904 190.03 250.154L185.95 247.584C184.9 249.184 182.81 250.184 180.53 250.184C177.3 250.184 174.9 248.554 174.24 245.564H190.57C190.63 244.684 190.67 243.904 190.67 243.234ZM174.26 241.844C174.89 238.904 177.13 237.184 179.92 237.184C183.15 237.184 185.31 239.054 185.58 241.844H174.26Z" fill="url(#paint8_linear)"/>
<path d="M198.93 243.744C198.93 245.564 199.47 247.044 200.6 248.244C201.72 249.454 203.15 250.034 204.93 250.034C207.11 250.034 208.89 249.104 209.95 247.434L214.25 249.914C212.35 252.854 208.93 254.724 204.93 254.724C198.69 254.794 193.73 249.914 193.85 243.744C193.73 237.574 198.69 232.694 204.93 232.764C208.93 232.764 212.35 234.584 214.25 237.574L209.95 240.024C208.86 238.424 207.07 237.424 204.93 237.424C201.38 237.424 198.93 240.174 198.93 243.744Z" fill="url(#paint9_linear)"/>
<path d="M238.67 242.384V254.184H233.35V242.774C233.35 239.204 231.72 237.384 228.64 237.384C225.58 237.384 223.34 239.764 223.34 243.284V254.184H218.07V225.044H223.34V236.294C224.54 234.174 226.94 232.764 229.9 232.764C235.32 232.764 238.67 236.294 238.67 242.384Z" fill="url(#paint10_linear)"/>
<path d="M96.9518 270.291V274.982H95.3714V262.998H99.7916C101.103 262.998 102.129 263.333 102.87 264.002C103.616 264.672 103.989 265.558 103.989 266.661C103.989 267.824 103.625 268.721 102.895 269.352C102.17 269.978 101.13 270.291 99.7751 270.291H96.9518ZM96.9518 268.998H99.7916C100.637 268.998 101.284 268.801 101.734 268.406C102.184 268.005 102.409 267.429 102.409 266.677C102.409 265.964 102.184 265.393 101.734 264.965C101.284 264.537 100.667 264.315 99.8821 264.298H96.9518V268.998ZM108.838 272.916L111.043 266.076H112.599L109.405 274.982H108.245L105.018 266.076H106.574L108.838 272.916ZM116.13 263.92V266.076H117.793V267.253H116.13V272.776C116.13 273.133 116.204 273.402 116.353 273.583C116.501 273.759 116.753 273.846 117.11 273.846C117.285 273.846 117.527 273.814 117.834 273.748V274.982C117.434 275.092 117.044 275.147 116.665 275.147C115.985 275.147 115.472 274.941 115.126 274.53C114.78 274.118 114.608 273.534 114.608 272.776V267.253H112.986V266.076H114.608V263.92H116.13ZM125.588 273.69H131.267V274.982H123.999V262.998H125.588V273.69ZM134.897 263.92V266.076H136.56V267.253H134.897V272.776C134.897 273.133 134.971 273.402 135.119 273.583C135.268 273.759 135.52 273.846 135.877 273.846C136.052 273.846 136.294 273.814 136.601 273.748V274.982C136.2 275.092 135.811 275.147 135.432 275.147C134.752 275.147 134.239 274.941 133.893 274.53C133.547 274.118 133.374 273.534 133.374 272.776V267.253H131.753V266.076H133.374V263.92H134.897ZM137.976 270.455C137.976 269.089 138.299 267.991 138.947 267.163C139.594 266.329 140.442 265.912 141.49 265.912C142.533 265.912 143.359 266.268 143.968 266.982V262.339H145.491V274.982H144.091L144.017 274.028C143.408 274.774 142.56 275.147 141.474 275.147C140.442 275.147 139.6 274.724 138.947 273.879C138.299 273.034 137.976 271.931 137.976 270.571V270.455ZM139.498 270.628C139.498 271.638 139.707 272.428 140.124 272.999C140.541 273.569 141.117 273.855 141.852 273.855C142.818 273.855 143.523 273.421 143.968 272.554V268.463C143.512 267.624 142.813 267.204 141.869 267.204C141.123 267.204 140.541 267.492 140.124 268.068C139.707 268.644 139.498 269.498 139.498 270.628ZM147.894 274.184C147.894 273.921 147.971 273.701 148.125 273.525C148.284 273.35 148.52 273.262 148.832 273.262C149.145 273.262 149.381 273.35 149.54 273.525C149.705 273.701 149.787 273.921 149.787 274.184C149.787 274.436 149.705 274.648 149.54 274.818C149.381 274.988 149.145 275.073 148.832 275.073C148.52 275.073 148.284 274.988 148.125 274.818C147.971 274.648 147.894 274.436 147.894 274.184Z" fill="#75477A"/>
<defs>
<linearGradient id="paint0_linear" x1="174.635" y1="48.5013" x2="175.277" y2="175.129" gradientUnits="userSpaceOnUse">
<stop stop-color="#29398F"/>
<stop offset="0.0518" stop-color="#274394"/>
<stop offset="0.2337" stop-color="#2760A7"/>
<stop offset="0.4112" stop-color="#2777B9"/>
<stop offset="0.5804" stop-color="#268BC8"/>
<stop offset="0.7391" stop-color="#239AD5"/>
<stop offset="0.8833" stop-color="#22A3DC"/>
<stop offset="1" stop-color="#22A7DF"/>
</linearGradient>
<linearGradient id="paint1_linear" x1="41.0937" y1="20.6914" x2="41.9124" y2="182.259" gradientUnits="userSpaceOnUse">
<stop stop-color="#E31877"/>
<stop offset="0.135" stop-color="#B81F72"/>
<stop offset="0.3008" stop-color="#90236E"/>
<stop offset="0.4628" stop-color="#70256B"/>
<stop offset="0.6171" stop-color="#582669"/>
<stop offset="0.762" stop-color="#452667"/>
<stop offset="0.8936" stop-color="#392666"/>
<stop offset="1" stop-color="#342665"/>
</linearGradient>
<linearGradient id="paint2_linear" x1="1.1926" y1="239.868" x2="25.093" y2="239.868" gradientUnits="userSpaceOnUse">
<stop offset="0.9832" stop-color="#29398F"/>
<stop offset="0.9841" stop-color="#274394"/>
<stop offset="0.9872" stop-color="#2760A7"/>
<stop offset="0.9901" stop-color="#2777B9"/>
<stop offset="0.993" stop-color="#268BC8"/>
<stop offset="0.9956" stop-color="#239AD5"/>
<stop offset="0.998" stop-color="#22A3DC"/>
<stop offset="1" stop-color="#22A7DF"/>
</linearGradient>
<linearGradient id="paint3_linear" x1="24.4741" y1="243.744" x2="46.0442" y2="243.744" gradientUnits="userSpaceOnUse">
<stop offset="0.9832" stop-color="#29398F"/>
<stop offset="0.9841" stop-color="#274394"/>
<stop offset="0.9872" stop-color="#2760A7"/>
<stop offset="0.9901" stop-color="#2777B9"/>
<stop offset="0.993" stop-color="#268BC8"/>
<stop offset="0.9956" stop-color="#239AD5"/>
<stop offset="0.998" stop-color="#22A3DC"/>
<stop offset="1" stop-color="#22A7DF"/>
</linearGradient>
<linearGradient id="paint4_linear" x1="49.2207" y1="243.744" x2="69.6277" y2="243.744" gradientUnits="userSpaceOnUse">
<stop offset="0.9832" stop-color="#29398F"/>
<stop offset="0.9841" stop-color="#274394"/>
<stop offset="0.9872" stop-color="#2760A7"/>
<stop offset="0.9901" stop-color="#2777B9"/>
<stop offset="0.993" stop-color="#268BC8"/>
<stop offset="0.9956" stop-color="#239AD5"/>
<stop offset="0.998" stop-color="#22A3DC"/>
<stop offset="1" stop-color="#22A7DF"/>
</linearGradient>
<linearGradient id="paint5_linear" x1="73.4375" y1="239.614" x2="94.0366" y2="239.614" gradientUnits="userSpaceOnUse">
<stop offset="0.9832" stop-color="#29398F"/>
<stop offset="0.9841" stop-color="#274394"/>
<stop offset="0.9872" stop-color="#2760A7"/>
<stop offset="0.9901" stop-color="#2777B9"/>
<stop offset="0.993" stop-color="#268BC8"/>
<stop offset="0.9956" stop-color="#239AD5"/>
<stop offset="0.998" stop-color="#22A3DC"/>
<stop offset="1" stop-color="#22A7DF"/>
</linearGradient>
<linearGradient id="paint6_linear" x1="108.447" y1="240.136" x2="132.795" y2="240.136" gradientUnits="userSpaceOnUse">
<stop offset="0.9832" stop-color="#29398F"/>
<stop offset="0.9841" stop-color="#274394"/>
<stop offset="0.9872" stop-color="#2760A7"/>
<stop offset="0.9901" stop-color="#2777B9"/>
<stop offset="0.993" stop-color="#268BC8"/>
<stop offset="0.9956" stop-color="#239AD5"/>
<stop offset="0.998" stop-color="#22A3DC"/>
<stop offset="1" stop-color="#22A7DF"/>
</linearGradient>
<linearGradient id="paint7_linear" x1="145.88" y1="239.868" x2="169.78" y2="239.868" gradientUnits="userSpaceOnUse">
<stop offset="0.9832" stop-color="#29398F"/>
<stop offset="0.9841" stop-color="#274394"/>
<stop offset="0.9872" stop-color="#2760A7"/>
<stop offset="0.9901" stop-color="#2777B9"/>
<stop offset="0.993" stop-color="#268BC8"/>
<stop offset="0.9956" stop-color="#239AD5"/>
<stop offset="0.998" stop-color="#22A3DC"/>
<stop offset="1" stop-color="#22A7DF"/>
</linearGradient>
<linearGradient id="paint8_linear" x1="169.161" y1="243.744" x2="190.731" y2="243.744" gradientUnits="userSpaceOnUse">
<stop offset="0.9832" stop-color="#29398F"/>
<stop offset="0.9841" stop-color="#274394"/>
<stop offset="0.9872" stop-color="#2760A7"/>
<stop offset="0.9901" stop-color="#2777B9"/>
<stop offset="0.993" stop-color="#268BC8"/>
<stop offset="0.9956" stop-color="#239AD5"/>
<stop offset="0.998" stop-color="#22A3DC"/>
<stop offset="1" stop-color="#22A7DF"/>
</linearGradient>
<linearGradient id="paint9_linear" x1="193.908" y1="243.744" x2="214.315" y2="243.744" gradientUnits="userSpaceOnUse">
<stop offset="0.9832" stop-color="#29398F"/>
<stop offset="0.9841" stop-color="#274394"/>
<stop offset="0.9872" stop-color="#2760A7"/>
<stop offset="0.9901" stop-color="#2777B9"/>
<stop offset="0.993" stop-color="#268BC8"/>
<stop offset="0.9956" stop-color="#239AD5"/>
<stop offset="0.998" stop-color="#22A3DC"/>
<stop offset="1" stop-color="#22A7DF"/>
</linearGradient>
<linearGradient id="paint10_linear" x1="218.124" y1="239.614" x2="238.724" y2="239.614" gradientUnits="userSpaceOnUse">
<stop offset="0.9832" stop-color="#29398F"/>
<stop offset="0.9841" stop-color="#274394"/>
<stop offset="0.9872" stop-color="#2760A7"/>
<stop offset="0.9901" stop-color="#2777B9"/>
<stop offset="0.993" stop-color="#268BC8"/>
<stop offset="0.9956" stop-color="#239AD5"/>
<stop offset="0.998" stop-color="#22A3DC"/>
<stop offset="1" stop-color="#22A7DF"/>
</linearGradient>
</defs>
</svg>
